<svg width="67" height="66" viewBox="0 0 67 66" fill="none" xmlns="http://www.w3.org/2000/svg">
<path d="M30.5901 65.46C30.5901 63.62 30.5901 61.78 30.5901 59.96C29.2401 59.68 27.8801 59.46 26.5601 59.12C21.7201 57.88 17.56 55.45 14.05 51.91C10.19 48 7.79006 43.31 6.69006 37.95C6.57006 37.35 6.46007 36.74 6.42007 36.13C6.39007 35.68 6.21007 35.57 5.79007 35.58C4.37007 35.6 2.95005 35.59 1.52005 35.59C1.29005 35.59 1.06005 35.59 0.800049 35.59C0.800049 33.74 0.800049 31.97 0.800049 30.1C2.64005 30.1 4.47007 30.1 6.20007 30.1C8.69007 16.23 16.7701 8.13999 30.6301 5.65999C30.6301 3.94999 30.6301 2.12999 30.6301 0.269989C32.4901 0.269989 34.2801 0.269989 36.1301 0.269989C36.1301 1.78999 36.1301 3.28999 36.1301 4.78999C36.1301 5.78999 36.13 5.79999 37.11 5.93999C43.97 6.90999 49.6601 10.07 54.1401 15.32C57.5201 19.28 59.5701 23.87 60.2801 29.05C60.3201 29.36 60.3901 29.67 60.4501 30.04C62.3001 30.04 64.1501 30.04 66.0101 30.04C66.0101 31.91 66.0101 33.78 66.0101 35.65C64.1601 35.65 62.3001 35.65 60.4401 35.65C59.6901 42.04 57.1201 47.53 52.6001 52.05C48.0701 56.58 42.5601 59.15 36.1701 59.9C36.1601 60.14 36.1301 60.32 36.1401 60.51C36.1601 62.16 36.1801 63.82 36.2001 65.47C34.3301 65.46 32.4601 65.46 30.5901 65.46ZM36.1501 54.36C47.1901 52.89 54.07 43.85 54.86 35.57C53.15 35.57 51.4401 35.57 49.7401 35.57C49.7401 33.71 49.7401 31.94 49.7401 30.08C51.4801 30.08 53.1901 30.08 54.9001 30.08C53.5301 19.5 44.9201 12.3 36.1301 11.37C36.1301 13.08 36.1301 14.79 36.1301 16.51C34.2701 16.51 32.5001 16.51 30.6401 16.51C30.6401 14.77 30.6401 13.06 30.6401 11.35C20.5701 12.61 12.9901 20.75 11.9001 30.11C13.6201 30.11 15.3201 30.11 17.0601 30.11C17.0601 31.97 17.0601 33.74 17.0601 35.6C15.3301 35.6 13.6201 35.6 11.9001 35.6C12.9701 44.89 20.5001 53.08 30.6301 54.36C30.6301 52.64 30.6301 50.93 30.6301 49.21C32.5001 49.21 34.2901 49.21 36.1401 49.21C36.1501 50.93 36.1501 52.62 36.1501 54.36Z" fill="black"/>
<path d="M33.3801 46.46C25.9101 46.45 19.7601 40.29 19.7801 32.83C19.7901 25.36 25.9601 19.2 33.4001 19.22C40.8701 19.24 47.0101 25.39 47.0101 32.85C47.0001 40.32 40.8401 46.48 33.3801 46.46ZM41.5401 32.87C41.5701 28.42 37.8901 24.72 33.4101 24.69C28.9701 24.66 25.2601 28.35 25.2301 32.82C25.2001 37.27 28.8801 40.97 33.3501 41C37.8101 41.02 41.5201 37.34 41.5401 32.87Z" fill="#E30613"/>
<path d="M36.1101 32.83C36.1201 34.33 34.9401 35.53 33.4401 35.56C31.9201 35.59 30.6801 34.38 30.6701 32.85C30.6601 31.33 31.8901 30.1 33.4101 30.12C34.9101 30.14 36.1001 31.33 36.1101 32.83Z" fill="black"/>
</svg>
