<svg width="18" height="22" viewBox="0 0 18 22" fill="none" xmlns="http://www.w3.org/2000/svg">
<path d="M6.84347 19.3553C6.08711 19.9138 5.18581 20.1572 4.29111 20.0445C3.3964 19.9319 2.56287 19.4701 1.93067 18.7367L1.37797 18.1181C1.13567 17.8345 0.999999 17.4535 0.999999 17.0567C0.999999 16.66 1.13567 16.279 1.37797 15.9954L3.72384 13.3384C3.96961 13.0619 4.30041 12.907 4.64499 12.907C4.98958 12.907 5.32038 13.0619 5.56614 13.3384V13.3384C5.81399 13.6157 6.14683 13.771 6.49344 13.771C6.84004 13.771 7.17289 13.6157 7.42073 13.3384L11.1053 9.12091C11.2282 8.98226 11.3259 8.81703 11.3925 8.63481C11.4591 8.4526 11.4934 8.25705 11.4934 8.05952C11.4934 7.86199 11.4591 7.66643 11.3925 7.48422C11.3259 7.30201 11.2282 7.13677 11.1053 6.99813V6.99813C10.8638 6.71682 10.7285 6.33818 10.7285 5.94376C10.7285 5.54935 10.8638 5.17071 11.1053 4.8894L13.4389 2.21835C13.6868 1.941 14.0196 1.78571 14.3662 1.78571C14.7128 1.78571 15.0457 1.941 15.2935 2.21835L15.8339 2.85096C16.4746 3.5746 16.8781 4.52867 16.9765 5.55276C17.0749 6.57685 16.8623 7.60849 16.3743 8.47423C13.8319 12.763 10.5969 16.4562 6.84347 19.3553V19.3553Z" stroke="white" stroke-width="2" stroke-linecap="round" stroke-linejoin="round"/>
</svg>
