<svg width="462" height="66" viewBox="0 0 462 66" fill="none" xmlns="http://www.w3.org/2000/svg">
<path d="M14.24 20.46V58.84H0V21.25L14.24 7.00999H46.13L32.68 20.46H14.24Z" fill="white"/>
<path d="M36.09 41.99L71.07 7.00999H83.42V58.85H69.17V52.2H46.69L59.43 39.53H69.16V25.76L36.09 58.84V41.99Z" fill="white"/>
<path d="M106.82 20.46V58.84H92.57V21.25L106.82 7H120.59C126.02 7 130.61 8.66 134.36 11.99C138.11 15.31 139.98 20.27 139.98 26.87C139.98 32.04 138.09 36.47 134.32 40.17C130.55 43.86 126.1 45.71 120.99 45.71L110.46 45.63V32.97L116.87 32.89C118.98 32.89 120.59 32.34 121.7 31.23C122.81 30.12 123.36 28.72 123.36 27.04C123.36 25.04 122.83 23.43 121.78 22.21C120.83 21 119.17 20.39 116.79 20.39L106.82 20.46Z" fill="white"/>
<path d="M140.69 41.99L175.66 7.00999H188.01V58.85H173.77V52.2H151.29L164.03 39.54H173.76V25.76L140.68 58.84V41.99H140.69Z" fill="white"/>
<path d="M211.09 39.46V58.85H196.84V21.25L211.09 7V26.79H229.69V7.01H244.73V58.85H229.69V39.46H211.09Z" fill="white"/>
<path d="M276.85 20.46V58.84H262.6V20.46H249.54L262.99 7.00999H294.88L281.43 20.46H276.85Z" fill="white"/>
<path d="M289.79 58.84V21.25L304.04 7V27.58L322.64 7H337.68V58.84H322.64V24.34L289.79 58.84Z" fill="white"/>
<path d="M389.21 7.00999V58.85H374.96V20.38H366.1C363.73 20.38 362.05 20.86 361.08 21.8C360.1 22.75 359.62 24.07 359.62 25.76C359.62 27.45 360.17 28.85 361.28 29.95C362.39 31.06 364 31.61 366.11 31.61L372.52 31.69H373L345.46 59.23V42.62L351.47 36.45C350.84 35.97 350.25 35.45 349.73 34.87C346.62 31.81 345.06 27.96 345.06 23.32C345.06 17.89 346.62 13.81 349.73 11.09C352.84 8.36999 357.04 7.00999 362.31 7.00999H389.21Z" fill="white"/>
<path d="M425.59 65.46C425.59 63.62 425.59 61.78 425.59 59.96C424.24 59.68 422.88 59.46 421.56 59.12C416.72 57.88 412.56 55.45 409.05 51.91C405.19 48 402.79 43.31 401.69 37.95C401.57 37.35 401.46 36.74 401.42 36.13C401.39 35.68 401.21 35.57 400.79 35.58C399.37 35.6 397.95 35.59 396.52 35.59C396.29 35.59 396.06 35.59 395.8 35.59C395.8 33.74 395.8 31.97 395.8 30.1C397.64 30.1 399.47 30.1 401.2 30.1C403.69 16.23 411.77 8.13999 425.63 5.65999C425.63 3.94999 425.63 2.12999 425.63 0.269989C427.49 0.269989 429.28 0.269989 431.13 0.269989C431.13 1.78999 431.13 3.28999 431.13 4.78999C431.13 5.78999 431.13 5.79999 432.11 5.93999C438.97 6.90999 444.66 10.07 449.14 15.32C452.52 19.28 454.57 23.87 455.28 29.05C455.32 29.36 455.39 29.67 455.45 30.04C457.3 30.04 459.15 30.04 461.01 30.04C461.01 31.91 461.01 33.78 461.01 35.65C459.16 35.65 457.3 35.65 455.44 35.65C454.69 42.04 452.12 47.53 447.6 52.05C443.07 56.58 437.56 59.15 431.17 59.9C431.16 60.14 431.13 60.32 431.14 60.51C431.16 62.16 431.18 63.82 431.2 65.47C429.33 65.46 427.46 65.46 425.59 65.46ZM431.15 54.36C442.19 52.89 449.07 43.85 449.86 35.57C448.15 35.57 446.44 35.57 444.74 35.57C444.74 33.71 444.74 31.94 444.74 30.08C446.48 30.08 448.19 30.08 449.9 30.08C448.53 19.5 439.92 12.3 431.13 11.37C431.13 13.08 431.13 14.79 431.13 16.51C429.27 16.51 427.5 16.51 425.64 16.51C425.64 14.77 425.64 13.06 425.64 11.35C415.57 12.61 407.99 20.75 406.9 30.11C408.62 30.11 410.32 30.11 412.06 30.11C412.06 31.97 412.06 33.74 412.06 35.6C410.33 35.6 408.62 35.6 406.9 35.6C407.97 44.89 415.5 53.08 425.63 54.36C425.63 52.64 425.63 50.93 425.63 49.21C427.5 49.21 429.29 49.21 431.14 49.21C431.15 50.93 431.15 52.62 431.15 54.36Z" fill="white"/>
<path d="M428.38 46.46C420.91 46.45 414.76 40.29 414.78 32.83C414.79 25.36 420.96 19.2 428.4 19.22C435.87 19.24 442.01 25.39 442.01 32.85C442 40.32 435.84 46.48 428.38 46.46ZM436.54 32.87C436.57 28.42 432.89 24.72 428.41 24.69C423.97 24.66 420.26 28.35 420.23 32.82C420.2 37.27 423.88 40.97 428.35 41C432.81 41.02 436.52 37.34 436.54 32.87Z" fill="white"/>
<path d="M431.11 32.83C431.12 34.33 429.94 35.53 428.44 35.56C426.92 35.59 425.68 34.38 425.67 32.85C425.66 31.33 426.89 30.1 428.41 30.12C429.91 30.14 431.1 31.33 431.11 32.83Z" fill="white"/>
</svg>
